<svg xmlns="http://www.w3.org/2000/svg" width="800" height="500" viewBox="0 0 800 500">
<rect width="800" height="500" fill="#ffffff"/>
<text x="400.0" y="30" text-anchor="middle" font-family="Helvetica,Arial,sans-serif" font-size="18" font-weight="bold" fill="#111">Household waste by destination, 2000-2020</text>
<line x1="78" y1="434.0" x2="770" y2="434.0" stroke="#d8d8d8" stroke-width="1"/>
<text x="66" y="438.0" text-anchor="end" font-family="Helvetica,Arial,sans-serif" font-size="12" fill="#333">0</text>
<line x1="78" y1="379.7" x2="770" y2="379.7" stroke="#d8d8d8" stroke-width="1"/>
<text x="66" y="383.7" text-anchor="end" font-family="Helvetica,Arial,sans-serif" font-size="12" fill="#333">50</text>
<line x1="78" y1="325.4" x2="770" y2="325.4" stroke="#d8d8d8" stroke-width="1"/>
<text x="66" y="329.4" text-anchor="end" font-family="Helvetica,Arial,sans-serif" font-size="12" fill="#333">100</text>
<line x1="78" y1="271.1" x2="770" y2="271.1" stroke="#d8d8d8" stroke-width="1"/>
<text x="66" y="275.1" text-anchor="end" font-family="Helvetica,Arial,sans-serif" font-size="12" fill="#333">150</text>
<line x1="78" y1="216.9" x2="770" y2="216.9" stroke="#d8d8d8" stroke-width="1"/>
<text x="66" y="220.9" text-anchor="end" font-family="Helvetica,Arial,sans-serif" font-size="12" fill="#333">200</text>
<line x1="78" y1="162.6" x2="770" y2="162.6" stroke="#d8d8d8" stroke-width="1"/>
<text x="66" y="166.6" text-anchor="end" font-family="Helvetica,Arial,sans-serif" font-size="12" fill="#333">250</text>
<line x1="78" y1="108.3" x2="770" y2="108.3" stroke="#d8d8d8" stroke-width="1"/>
<text x="66" y="112.3" text-anchor="end" font-family="Helvetica,Arial,sans-serif" font-size="12" fill="#333">300</text>
<line x1="78" y1="54.0" x2="770" y2="54.0" stroke="#d8d8d8" stroke-width="1"/>
<text x="66" y="58.0" text-anchor="end" font-family="Helvetica,Arial,sans-serif" font-size="12" fill="#333">350</text>
<line x1="78.0" y1="434" x2="78.0" y2="440" stroke="#555" stroke-width="1"/>
<text x="78.0" y="458" text-anchor="middle" font-family="Helvetica,Arial,sans-serif" font-size="12" fill="#333">2000</text>
<line x1="251.0" y1="434" x2="251.0" y2="440" stroke="#555" stroke-width="1"/>
<text x="251.0" y="458" text-anchor="middle" font-family="Helvetica,Arial,sans-serif" font-size="12" fill="#333">2005</text>
<line x1="424.0" y1="434" x2="424.0" y2="440" stroke="#555" stroke-width="1"/>
<text x="424.0" y="458" text-anchor="middle" font-family="Helvetica,Arial,sans-serif" font-size="12" fill="#333">2010</text>
<line x1="597.0" y1="434" x2="597.0" y2="440" stroke="#555" stroke-width="1"/>
<text x="597.0" y="458" text-anchor="middle" font-family="Helvetica,Arial,sans-serif" font-size="12" fill="#333">2015</text>
<line x1="770.0" y1="434" x2="770.0" y2="440" stroke="#555" stroke-width="1"/>
<text x="770.0" y="458" text-anchor="middle" font-family="Helvetica,Arial,sans-serif" font-size="12" fill="#333">2020</text>
<line x1="78" y1="434" x2="770" y2="434" stroke="#333" stroke-width="1.5"/>
<line x1="78" y1="54" x2="78" y2="434" stroke="#333" stroke-width="1.5"/>
<text x="424.0" y="482" text-anchor="middle" font-family="Helvetica,Arial,sans-serif" font-size="13" fill="#111">Year</text>
<text x="20" y="244.0" text-anchor="middle" font-family="Helvetica,Arial,sans-serif" font-size="13" fill="#111" transform="rotate(-90 20 244.0)">Waste (thousand tonnes)</text>
<polyline points="78.0,86.6 251.0,130.0 424.0,222.3 597.0,303.7 770.0,352.6" fill="none" stroke="#1f4e79" stroke-width="2.6"/>
<circle cx="78.0" cy="86.6" r="4.2" fill="#1f4e79"/>
<circle cx="251.0" cy="130.0" r="4.2" fill="#1f4e79"/>
<circle cx="424.0" cy="222.3" r="4.2" fill="#1f4e79"/>
<circle cx="597.0" cy="303.7" r="4.2" fill="#1f4e79"/>
<circle cx="770.0" cy="352.6" r="4.2" fill="#1f4e79"/>
<polyline points="78.0,368.9 251.0,330.9 424.0,271.1 597.0,211.4 770.0,173.4" fill="none" stroke="#a8391b" stroke-width="2.6" stroke-dasharray="11,6" stroke-linecap="round"/>
<circle cx="78.0" cy="368.9" r="4.2" fill="#a8391b"/>
<circle cx="251.0" cy="330.9" r="4.2" fill="#a8391b"/>
<circle cx="424.0" cy="271.1" r="4.2" fill="#a8391b"/>
<circle cx="597.0" cy="211.4" r="4.2" fill="#a8391b"/>
<circle cx="770.0" cy="173.4" r="4.2" fill="#a8391b"/>
<polyline points="78.0,412.3 251.0,385.1 424.0,341.7 597.0,314.6 770.0,309.1" fill="none" stroke="#2f6b34" stroke-width="2.6" stroke-dasharray="2,5" stroke-linecap="round"/>
<circle cx="78.0" cy="412.3" r="4.2" fill="#2f6b34"/>
<circle cx="251.0" cy="385.1" r="4.2" fill="#2f6b34"/>
<circle cx="424.0" cy="341.7" r="4.2" fill="#2f6b34"/>
<circle cx="597.0" cy="314.6" r="4.2" fill="#2f6b34"/>
<circle cx="770.0" cy="309.1" r="4.2" fill="#2f6b34"/>
<rect x="574" y="68" width="188" height="78" fill="#ffffff" fill-opacity="0.92" stroke="#bbb"/>
<line x1="586" y1="90" x2="620" y2="90" stroke="#1f4e79" stroke-width="2.6"/>
<circle cx="603" cy="90" r="4.2" fill="#1f4e79"/>
<text x="630" y="94" font-family="Helvetica,Arial,sans-serif" font-size="12.5" fill="#222">Landfill</text>
<line x1="586" y1="112" x2="620" y2="112" stroke="#a8391b" stroke-width="2.6" stroke-dasharray="11,6" stroke-linecap="round"/>
<circle cx="603" cy="112" r="4.2" fill="#a8391b"/>
<text x="630" y="116" font-family="Helvetica,Arial,sans-serif" font-size="12.5" fill="#222">Recycling</text>
<line x1="586" y1="134" x2="620" y2="134" stroke="#2f6b34" stroke-width="2.6" stroke-dasharray="2,5" stroke-linecap="round"/>
<circle cx="603" cy="134" r="4.2" fill="#2f6b34"/>
<text x="630" y="138" font-family="Helvetica,Arial,sans-serif" font-size="12.5" fill="#222">Energy recovery</text>
</svg>