<svg xmlns="http://www.w3.org/2000/svg" width="1260" height="640" viewBox="0 0 1260 640">
<rect width="1260" height="640" fill="#fff"/>
<text x="630.0" y="46" text-anchor="middle" font-family="Helvetica,Arial,sans-serif" font-size="22" font-weight="bold" fill="#111">The village of Greenbay</text>
<text x="320.0" y="112" text-anchor="middle" font-family="Helvetica,Arial,sans-serif" font-size="17" font-weight="bold" fill="#222">1990</text>
<rect x="40" y="128" width="560" height="450" fill="#fff" stroke="#333" stroke-width="2"/>
<rect x="41" y="499" width="558" height="78" fill="#cfe3f2" stroke="none" stroke-width="1.2"/>
<text x="190" y="546" text-anchor="middle" font-family="Helvetica,Arial,sans-serif" font-size="15" fill="#3d6a91" font-weight="bold">SEA</text>
<rect x="41" y="479" width="558" height="20" fill="#f2e6c9" stroke="none" stroke-width="1.2"/>
<text x="112" y="493" text-anchor="middle" font-family="Helvetica,Arial,sans-serif" font-size="11" fill="#6b5a2e">Beach</text>
<rect x="41" y="354" width="558" height="26" fill="#d2d2d2" stroke="none" stroke-width="1.2"/>
<line x1="41" y1="367" x2="599" y2="367" stroke="#fff" stroke-width="2" stroke-dasharray="14,10"/>
<text x="126" y="362" text-anchor="middle" font-family="Helvetica,Arial,sans-serif" font-size="11" fill="#555" font-weight="bold">COAST ROAD</text>
<rect x="58" y="146" width="262" height="196" fill="#dcebd1" stroke="#555" stroke-width="1.2"/>
<text x="189" y="250" text-anchor="middle" font-family="Helvetica,Arial,sans-serif" font-size="14" fill="#111" font-weight="bold">FARMLAND</text>
<rect x="340" y="146" width="242" height="196" fill="#b3cbaa" stroke="#555" stroke-width="1.2"/>
<text x="461" y="250" text-anchor="middle" font-family="Helvetica,Arial,sans-serif" font-size="14" fill="#111" font-weight="bold">WOODLAND</text>
<rect x="492" y="499" width="26" height="62" fill="#b08d6a" stroke="#555" stroke-width="1.2"/>
<text x="452" y="528" text-anchor="middle" font-family="Helvetica,Arial,sans-serif" font-size="12" fill="#4a3a24">Pier</text>
<rect x="58" y="390" width="128" height="80" fill="#ead9c0" stroke="#555" stroke-width="1.2"/>
<text x="122" y="435" text-anchor="middle" font-family="Helvetica,Arial,sans-serif" font-size="13" fill="#111">Houses</text>
<rect x="216" y="390" width="146" height="80" fill="#d6e3f3" stroke="#555" stroke-width="1.2"/>
<text x="289" y="435" text-anchor="middle" font-family="Helvetica,Arial,sans-serif" font-size="13" fill="#111">School</text>
<circle cx="566" cy="162" r="17" fill="#fff" stroke="#555"/>
<path d="M 566 150 L 571 166 L 566 162 L 561 166 Z" fill="#333"/>
<text x="566" y="186" text-anchor="middle" font-family="Helvetica,Arial,sans-serif" font-size="10" fill="#555">N</text>
<text x="940.0" y="112" text-anchor="middle" font-family="Helvetica,Arial,sans-serif" font-size="17" font-weight="bold" fill="#222">2020</text>
<rect x="660" y="128" width="560" height="450" fill="#fff" stroke="#333" stroke-width="2"/>
<rect x="661" y="499" width="558" height="78" fill="#cfe3f2" stroke="none" stroke-width="1.2"/>
<text x="810" y="546" text-anchor="middle" font-family="Helvetica,Arial,sans-serif" font-size="15" fill="#3d6a91" font-weight="bold">SEA</text>
<rect x="661" y="479" width="558" height="20" fill="#efe0bd" stroke="none" stroke-width="1.2"/>
<text x="732" y="493" text-anchor="middle" font-family="Helvetica,Arial,sans-serif" font-size="11" fill="#6b5a2e">Promenade</text>
<rect x="661" y="354" width="558" height="26" fill="#d2d2d2" stroke="none" stroke-width="1.2"/>
<line x1="661" y1="367" x2="1219" y2="367" stroke="#fff" stroke-width="2" stroke-dasharray="14,10"/>
<text x="746" y="362" text-anchor="middle" font-family="Helvetica,Arial,sans-serif" font-size="11" fill="#555" font-weight="bold">COAST ROAD</text>
<rect x="678" y="146" width="262" height="196" fill="#e7daec" stroke="#555" stroke-width="1.2"/>
<text x="809" y="244" text-anchor="middle" font-family="Helvetica,Arial,sans-serif" font-size="14" fill="#111" font-weight="bold">HOUSING</text>
<text x="809" y="262" text-anchor="middle" font-family="Helvetica,Arial,sans-serif" font-size="14" fill="#111" font-weight="bold">ESTATE</text>
<rect x="960" y="146" width="112" height="196" fill="#f4dac9" stroke="#555" stroke-width="1.2"/>
<text x="1016" y="244" text-anchor="middle" font-family="Helvetica,Arial,sans-serif" font-size="13" fill="#111" font-weight="bold">HOTEL</text>
<rect x="1090" y="146" width="112" height="196" fill="#e2e2e2" stroke="#555" stroke-width="1.2"/>
<text x="1146" y="238" text-anchor="middle" font-family="Helvetica,Arial,sans-serif" font-size="13" fill="#111" font-weight="bold">CAR</text>
<text x="1146" y="255" text-anchor="middle" font-family="Helvetica,Arial,sans-serif" font-size="13" fill="#111" font-weight="bold">PARK</text>
<rect x="1052" y="499" width="150" height="64" fill="#bdd9ef" stroke="#555" stroke-width="1.2"/>
<line x1="1070" y1="520" x2="1070" y2="558" stroke="#7fa6c9" stroke-width="3"/>
<line x1="1104" y1="520" x2="1104" y2="558" stroke="#7fa6c9" stroke-width="3"/>
<line x1="1138" y1="520" x2="1138" y2="558" stroke="#7fa6c9" stroke-width="3"/>
<line x1="1172" y1="520" x2="1172" y2="558" stroke="#7fa6c9" stroke-width="3"/>
<text x="1127" y="514" text-anchor="middle" font-family="Helvetica,Arial,sans-serif" font-size="12" fill="#2d5c85" font-weight="bold">Marina</text>
<rect x="678" y="390" width="128" height="80" fill="#ead9c0" stroke="#555" stroke-width="1.2"/>
<text x="742" y="435" text-anchor="middle" font-family="Helvetica,Arial,sans-serif" font-size="13" fill="#111">Houses</text>
<rect x="836" y="390" width="146" height="80" fill="#d6e3f3" stroke="#555" stroke-width="1.2"/>
<text x="909" y="435" text-anchor="middle" font-family="Helvetica,Arial,sans-serif" font-size="13" fill="#111">School</text>
<rect x="1012" y="390" width="132" height="80" fill="#d5edd3" stroke="#555" stroke-width="1.2"/>
<text x="1078" y="429" text-anchor="middle" font-family="Helvetica,Arial,sans-serif" font-size="12" fill="#111">Sports</text>
<text x="1078" y="445" text-anchor="middle" font-family="Helvetica,Arial,sans-serif" font-size="12" fill="#111">field</text>
<circle cx="1186" cy="162" r="17" fill="#fff" stroke="#555"/>
<path d="M 1186 150 L 1191 166 L 1186 162 L 1181 166 Z" fill="#333"/>
<text x="1186" y="186" text-anchor="middle" font-family="Helvetica,Arial,sans-serif" font-size="10" fill="#555">N</text>
</svg>